# xmcd
#
# Track frame offsets:
#	150
#	26230
#	46966
#	70894
#	93806
#	113526
#	135230
#	167206
#	193830
#	218182
#	244294
#
# Disc length: 3588 seconds
#
# Revision: 0
# Processed by: cddbd v1.5.2PL0 Copyright (c) Steve Scherf et al.
# Submitted via: dBpowerAMP V4.0
#
DISCID=970e020b
DTITLE=Mike Wells - Keeping The Focus Disc 1
DYEAR=1900
DGENRE=
TTITLE0=KTF 01-01
TTITLE1=KTF 01-02
TTITLE2=KTF 01-03
TTITLE3=KTF 01-04
TTITLE4=KTF 01-05
TTITLE5=KTF 01-06
TTITLE6=KTF 01-07
TTITLE7=KTF 01-08
TTITLE8=KTF 01-09
TTITLE9=KTF 01-10
TTITLE10=KTF 01-11
EXTD=Free download at http://gracehead.com
EXTT0=
EXTT1=
EXTT2=
EXTT3=
EXTT4=
EXTT5=
EXTT6=
EXTT7=
EXTT8=
EXTT9=
EXTT10=
PLAYORDER=
